# xmcd CD database file
#
# Track frame offsets:
#	150
#	12460
#	21855
#	29827
#	39040
#	48910
#	59917
#	69400
#	80057
#	87475
#	94385
#	106102
#	117967
#	126727
#	133147
#	143280
#	154410
#	166650
#	174330
#	181025
#	187192
#	193577
#	202207
#	215380
#	228415
#
# Disc length: 3249 seconds
#
# Revision: 0
# Processed by: cddbd v1.5.1PL0 Copyright (c) Steve Scherf et al.
# Submitted via: CDex 1.51
#
DISCID=6c0caf19
DTITLE=Various Artist - マザーグース〜英語のうた〜　DISK2
DYEAR=1996
DGENRE=Country
TTITLE0=あさねぼうの歌
TTITLE1=おはよう
TTITLE2=はじめまして
TTITLE3=ぶん　ぶん　ぶん
TTITLE4=テントウムシ、テントウムシ
TTITLE5=3匹の子ねこ
TTITLE6=ネコちゃん、ネコちゃん
TTITLE7=メェー、メェー、黒羊さん
TTITLE8=メリーさんの羊
TTITLE9=こぶたちゃん　市場へ行った
TTITLE10=いたちがぴょんとはねてでる!
TTITLE11=ハンプティ、ダンプティ
TTITLE12=ヘイ・ディドゥル・ディドゥル
TTITLE13=こげこげボート
TTITLE14=大きなふねにのるもの
TTITLE15=ルービー・ルー
TTITLE16=田んぼの中の一軒家（谷間の農夫）
TTITLE17=村の村長さん
TTITLE18=マルベリのまわりをまわろう
TTITLE19=サリーおひさままわろう
TTITLE20=木馬にのって
TTITLE21=ヒコリ・ディコリ・ドック
TTITLE22=ねんねんころりよ
TTITLE23=しずかにねんね
TTITLE24=きらきら星
EXTD=YEAR: 1996
EXTT0=
EXTT1=
EXTT2=
EXTT3=
EXTT4=
EXTT5=
EXTT6=
EXTT7=
EXTT8=
EXTT9=
EXTT10=
EXTT11=
EXTT12=
EXTT13=
EXTT14=
EXTT15=
EXTT16=
EXTT17=
EXTT18=
EXTT19=
EXTT20=
EXTT21=
EXTT22=
EXTT23=
EXTT24=
PLAYORDER=
